<svg xmlns="http://www.w3.org/2000/svg" width="1280" height="720" viewBox="0 0 1280 720">
  <defs>
    <linearGradient id="bg2" x1="0" y1="0" x2="1" y2="1">
      <stop offset="0%" stop-color="#f9fafb"/>
      <stop offset="100%" stop-color="#eef2ff"/>
    </linearGradient>
    <marker id="arrow" markerWidth="8" markerHeight="8" refX="7" refY="4" orient="auto">
      <polygon points="0,0 8,4 0,8" fill="#2563eb"/>
    </marker>
  </defs>
  <rect width="1280" height="720" fill="url(#bg2)"/>

  <rect x="420" y="40" width="440" height="640" rx="42" fill="#111827"/>
  <rect x="438" y="70" width="404" height="580" rx="30" fill="#ffffff"/>

  <text x="470" y="120" font-family="Helvetica, Arial, sans-serif" font-size="28" font-weight="700" fill="#0f172a">Plan 2: Tap to Reveal</text>
  <text x="470" y="150" font-family="Helvetica, Arial, sans-serif" font-size="17" fill="#64748b">Default view is clean. Relation appears on tap.</text>

  <rect x="470" y="190" width="340" height="160" rx="16" fill="#f8fafc" stroke="#e2e8f0"/>
  <text x="490" y="245" font-family="Georgia, serif" font-size="30" fill="#111827">The </text>
  <rect x="550" y="220" width="82" height="34" rx="8" fill="#bfdbfe"/>
  <text x="562" y="245" font-family="Georgia, serif" font-size="28" fill="#1e3a8a">book</text>
  <text x="640" y="245" font-family="Georgia, serif" font-size="30" fill="#111827"> is on the desk.</text>
  <text x="490" y="294" font-family="Helvetica, Arial, sans-serif" font-size="23" fill="#334155">その本は机の上にある。</text>

  <rect x="500" y="400" width="290" height="80" rx="14" fill="#eff6ff" stroke="#93c5fd"/>
  <text x="518" y="448" font-family="Helvetica, Arial, sans-serif" font-size="24" fill="#1d4ed8">that I bought yesterday</text>

  <path d="M 590 256 C 560 320, 540 360, 520 398" stroke="#2563eb" stroke-width="4" fill="none" stroke-dasharray="7 7" marker-end="url(#arrow)"/>

  <rect x="470" y="520" width="340" height="80" rx="12" fill="#fff7ed" stroke="#fdba74"/>
  <text x="490" y="552" font-family="Helvetica, Arial, sans-serif" font-size="20" fill="#9a3412">Tapped token: book</text>
  <text x="490" y="580" font-family="Helvetica, Arial, sans-serif" font-size="20" fill="#9a3412">Modified by: that I bought yesterday</text>
</svg>
